HIERARCHY
ROOT mixamorig:Hips
{
	OFFSET 0.000000 104.274902 0.000000
	CHANNELS 6 Xposition Yposition Zposition Xrotation Yrotation Zrotation
	JOINT mixamorig:Spine
	{
		OFFSET 0.000000 10.181549 0.131524
		CHANNELS 6 Xposition Yposition Zposition Xrotation Yrotation Zrotation
		JOINT mixamorig:Spine1
		{
			OFFSET 0.000000 9.893990 -1.470706
			CHANNELS 3 Xrotation Yrotation Zrotation
			JOINT mixamorig:Spine2
			{
				OFFSET 0.000000 9.220787 -1.370636
				CHANNELS 3 Xrotation Yrotation Zrotation
				JOINT mixamorig:Neck
				{
					OFFSET 0.000000 16.740372 -2.049023
					CHANNELS 6 Xposition Yposition Zposition Xrotation Yrotation Zrotation
					JOINT mixamorig:Head
					{
						OFFSET 0.000000 9.617859 1.684975
						CHANNELS 6 Xposition Yposition Zposition Xrotation Yrotation Zrotation
						JOINT mixamorig:HeadTop_End
						{
							OFFSET 0.000000 22.037369 7.501070
							CHANNELS 6 Xposition Yposition Zposition Xrotation Yrotation Zrotation
							End Site
							{
								OFFSET 0.000000 23.106567 -2.828246
							}
						}
					}
				}
				JOINT mixamorig:RightShoulder
				{
					OFFSET -4.570000 11.014862 -2.160841
					CHANNELS 6 Xposition Yposition Zposition Xrotation Yrotation Zrotation
					JOINT mixamorig:RightArm
					{
						OFFSET -10.592869 -0.524796 -2.232105
						CHANNELS 3 Xrotation Yrotation Zrotation
						JOINT mixamorig:RightForeArm
						{
							OFFSET -27.841499 0.000000 0.000000
							CHANNELS 3 Xrotation Yrotation Zrotation
							JOINT mixamorig:RightHand
							{
								OFFSET -28.328800 0.000000 0.000000
								CHANNELS 3 Xrotation Yrotation Zrotation
								JOINT mixamorig:RightHandThumb1
								{
									OFFSET -2.464798 -1.573990 2.681910
									CHANNELS 6 Xposition Yposition Zposition Xrotation Yrotation Zrotation
									JOINT mixamorig:RightHandThumb2
									{
										OFFSET -3.244789 -1.873367 1.873378
										CHANNELS 3 Xrotation Yrotation Zrotation
										JOINT mixamorig:RightHandThumb3
										{
											OFFSET -2.646255 -1.527817 1.527816
											CHANNELS 3 Xrotation Yrotation Zrotation
											JOINT mixamorig:RightHandThumb4
											{
												OFFSET -1.994583 -1.151581 1.151575
												CHANNELS 3 Xrotation Yrotation Zrotation
												End Site
												{
													OFFSET -1.860176 -1.142715 1.365483
												}
											}
										}
									}
								}
								JOINT mixamorig:RightHandIndex1
								{
									OFFSET -9.108299 -0.517883 2.259803
									CHANNELS 6 Xposition Yposition Zposition Xrotation Yrotation Zrotation
									JOINT mixamorig:RightHandIndex2
									{
										OFFSET -3.700005 0.000000 0.000000
										CHANNELS 3 Xrotation Yrotation Zrotation
										JOINT mixamorig:RightHandIndex3
										{
											OFFSET -2.849998 0.000000 0.000000
											CHANNELS 3 Xrotation Yrotation Zrotation
											JOINT mixamorig:RightHandIndex4
											{
												OFFSET -2.772202 0.000000 0.000000
												CHANNELS 3 Xrotation Yrotation Zrotation
												End Site
												{
													OFFSET -2.772202 0.000000 -0.000484
												}
											}
										}
									}
								}
								JOINT mixamorig:RightHandMiddle1
								{
									OFFSET -9.532501 0.000000 0.000000
									CHANNELS 6 Xposition Yposition Zposition Xrotation Yrotation Zrotation
									JOINT mixamorig:RightHandMiddle2
									{
										OFFSET -3.699997 0.000000 0.000000
										CHANNELS 3 Xrotation Yrotation Zrotation
										JOINT mixamorig:RightHandMiddle3
										{
											OFFSET -2.950005 0.000000 0.000000
											CHANNELS 3 Xrotation Yrotation Zrotation
											JOINT mixamorig:RightHandMiddle4
											{
												OFFSET -2.946602 0.000000 0.000000
												CHANNELS 3 Xrotation Yrotation Zrotation
												End Site
												{
													OFFSET -2.946594 0.000000 -0.000982
												}
											}
										}
									}
								}
								JOINT mixamorig:RightHandRing1
								{
									OFFSET -9.103600 -0.043106 -1.865100
									CHANNELS 6 Xposition Yposition Zposition Xrotation Yrotation Zrotation
									JOINT mixamorig:RightHandRing2
									{
										OFFSET -3.379303 0.000000 0.000000
										CHANNELS 3 Xrotation Yrotation Zrotation
										JOINT mixamorig:RightHandRing3
										{
											OFFSET -2.889702 0.000000 0.000000
											CHANNELS 3 Xrotation Yrotation Zrotation
											JOINT mixamorig:RightHandRing4
											{
												OFFSET -2.638794 0.000000 0.000000
												CHANNELS 3 Xrotation Yrotation Zrotation
												End Site
												{
													OFFSET -2.638794 0.000000 0.004219
												}
											}
										}
									}
								}
								JOINT mixamorig:RightHandPinky1
								{
									OFFSET -8.076698 -0.486725 -3.806297
									CHANNELS 6 Xposition Yposition Zposition Xrotation Yrotation Zrotation
									JOINT mixamorig:RightHandPinky2
									{
										OFFSET -3.600006 0.000000 0.000000
										CHANNELS 3 Xrotation Yrotation Zrotation
										JOINT mixamorig:RightHandPinky3
										{
											OFFSET -2.099998 0.000000 0.000000
											CHANNELS 3 Xrotation Yrotation Zrotation
											JOINT mixamorig:RightHandPinky4
											{
												OFFSET -2.115799 0.000000 0.000000
												CHANNELS 3 Xrotation Yrotation Zrotation
												End Site
												{
													OFFSET -2.115799 0.000000 0.000174
												}
											}
										}
									}
								}
							}
						}
					}
				}
				JOINT mixamorig:LeftShoulder
				{
					OFFSET 4.570400 11.014664 -2.160817
					CHANNELS 6 Xposition Yposition Zposition Xrotation Yrotation Zrotation
					JOINT mixamorig:LeftArm
					{
						OFFSET 10.592365 -0.524597 -2.232113
						CHANNELS 3 Xrotation Yrotation Zrotation
						JOINT mixamorig:LeftForeArm
						{
							OFFSET 27.841499 0.000000 0.000000
							CHANNELS 3 Xrotation Yrotation Zrotation
							JOINT mixamorig:LeftHand
							{
								OFFSET 28.328804 0.000000 0.000000
								CHANNELS 3 Xrotation Yrotation Zrotation
								JOINT mixamorig:LeftHandThumb1
								{
									OFFSET 2.466095 -1.576202 2.681697
									CHANNELS 6 Xposition Yposition Zposition Xrotation Yrotation Zrotation
									JOINT mixamorig:LeftHandThumb2
									{
										OFFSET 3.243317 -1.872528 1.872528
										CHANNELS 3 Xrotation Yrotation Zrotation
										JOINT mixamorig:LeftHandThumb3
										{
											OFFSET 2.647881 -1.528763 1.528755
											CHANNELS 3 Xrotation Yrotation Zrotation
											JOINT mixamorig:LeftHandThumb4
											{
												OFFSET 1.998924 -1.154068 1.154079
												CHANNELS 3 Xrotation Yrotation Zrotation
												End Site
												{
													OFFSET 1.884041 -1.149155 1.337651
												}
											}
										}
									}
								}
								JOINT mixamorig:LeftHandIndex1
								{
									OFFSET 9.109299 -0.518005 2.259899
									CHANNELS 6 Xposition Yposition Zposition Xrotation Yrotation Zrotation
									JOINT mixamorig:LeftHandIndex2
									{
										OFFSET 3.699997 0.000000 0.000000
										CHANNELS 3 Xrotation Yrotation Zrotation
										JOINT mixamorig:LeftHandIndex3
										{
											OFFSET 2.849998 0.000000 0.000000
											CHANNELS 3 Xrotation Yrotation Zrotation
											JOINT mixamorig:LeftHandIndex4
											{
												OFFSET 2.774902 0.000000 0.000000
												CHANNELS 3 Xrotation Yrotation Zrotation
												End Site
												{
													OFFSET 2.774902 0.000000 -0.000072
												}
											}
										}
									}
								}
								JOINT mixamorig:LeftHandMiddle1
								{
									OFFSET 9.533394 0.000000 0.000000
									CHANNELS 6 Xposition Yposition Zposition Xrotation Yrotation Zrotation
									JOINT mixamorig:LeftHandMiddle2
									{
										OFFSET 3.700005 0.000000 0.000000
										CHANNELS 3 Xrotation Yrotation Zrotation
										JOINT mixamorig:LeftHandMiddle3
										{
											OFFSET 2.949997 0.000000 0.000000
											CHANNELS 3 Xrotation Yrotation Zrotation
											JOINT mixamorig:LeftHandMiddle4
											{
												OFFSET 2.952904 0.000000 0.000000
												CHANNELS 3 Xrotation Yrotation Zrotation
												End Site
												{
													OFFSET 2.952896 0.000000 0.000165
												}
											}
										}
									}
								}
								JOINT mixamorig:LeftHandRing1
								{
									OFFSET 9.104500 -0.042999 -1.865100
									CHANNELS 6 Xposition Yposition Zposition Xrotation Yrotation Zrotation
									JOINT mixamorig:LeftHandRing2
									{
										OFFSET 3.149994 0.000000 0.000000
										CHANNELS 3 Xrotation Yrotation Zrotation
										JOINT mixamorig:LeftHandRing3
										{
											OFFSET 2.950005 0.000000 0.000000
											CHANNELS 3 Xrotation Yrotation Zrotation
											JOINT mixamorig:LeftHandRing4
											{
												OFFSET 2.644295 0.000000 0.000000
												CHANNELS 3 Xrotation Yrotation Zrotation
												End Site
												{
													OFFSET 2.644302 0.000000 0.000083
												}
											}
										}
									}
								}
								JOINT mixamorig:LeftHandPinky1
								{
									OFFSET 8.077797 -0.486893 -3.806301
									CHANNELS 6 Xposition Yposition Zposition Xrotation Yrotation Zrotation
									JOINT mixamorig:LeftHandPinky2
									{
										OFFSET 3.599998 0.000000 0.000000
										CHANNELS 3 Xrotation Yrotation Zrotation
										JOINT mixamorig:LeftHandPinky3
										{
											OFFSET 2.099998 0.000000 0.000000
											CHANNELS 3 Xrotation Yrotation Zrotation
											JOINT mixamorig:LeftHandPinky4
											{
												OFFSET 2.125504 0.000000 0.000000
												CHANNELS 3 Xrotation Yrotation Zrotation
												End Site
												{
													OFFSET 2.125504 0.000000 -0.001254
												}
											}
										}
									}
								}
							}
						}
					}
				}
			}
		}
	}
	JOINT mixamorig:RightUpLeg
	{
		OFFSET -8.207800 -6.751701 -1.599544
		CHANNELS 6 Xposition Yposition Zposition Xrotation Yrotation Zrotation
		JOINT mixamorig:RightLeg
		{
			OFFSET 0.000000 -44.370155 0.345934
			CHANNELS 3 Xrotation Yrotation Zrotation
			JOINT mixamorig:RightFoot
			{
				OFFSET 0.000000 -44.423664 -3.043536
				CHANNELS 3 Xrotation Yrotation Zrotation
				JOINT mixamorig:RightToeBase
				{
					OFFSET 0.000000 -8.728685 10.710592
					CHANNELS 3 Xrotation Yrotation Zrotation
					JOINT mixamorig:RightToe_End
					{
						OFFSET 0.000000 -0.000664 9.278099
						CHANNELS 3 Xrotation Yrotation Zrotation
						End Site
						{
							OFFSET 0.000000 -0.000664 9.278101
						}
					}
				}
			}
		}
	}
	JOINT mixamorig:LeftUpLeg
	{
		OFFSET 8.207800 -6.751701 -1.599544
		CHANNELS 6 Xposition Yposition Zposition Xrotation Yrotation Zrotation
		JOINT mixamorig:LeftLeg
		{
			OFFSET 0.000000 -44.370049 0.346940
			CHANNELS 3 Xrotation Yrotation Zrotation
			JOINT mixamorig:LeftFoot
			{
				OFFSET 0.000000 -44.423603 -3.044389
				CHANNELS 3 Xrotation Yrotation Zrotation
				JOINT mixamorig:LeftToeBase
				{
					OFFSET 0.000000 -8.728686 10.710592
					CHANNELS 3 Xrotation Yrotation Zrotation
					JOINT mixamorig:LeftToe_End
					{
						OFFSET 0.000000 -0.000680 9.278100
						CHANNELS 3 Xrotation Yrotation Zrotation
						End Site
						{
							OFFSET 0.000000 -0.000680 9.278100
						}
					}
				}
			}
		}
	}
}
MOTION
Frames: 4
Frame Time: 0.033333
10.492145 101.063171 -0.007440 -1.586516 -8.843259 -4.696552 -0.000002 10.181553 0.131524 4.470213 0.610821 0.041311 8.958064 1.142747 -1.084227 8.958069 1.142745 -1.084229 0.000000 16.740364 -2.049020 2.780141 -1.237127 2.396162 0.000004 9.617836 1.684976 -10.763745 -3.570380 1.766968 -0.000000 22.037384 7.501074 -0.000000 -0.000001 0.000000 -4.570001 11.014857 -2.160837 0.939653 -2.070937 -3.989278 9.863177 3.007286 78.847485 1.629999 96.633680 -2.201427 29.373444 4.551843 -23.807338 -2.464798 -1.573952 2.681908 5.372839 5.652870 13.616012 3.550423 -11.878165 1.374657 0.000012 -0.000002 -0.000003 -0.000003 -0.000004 -0.000003 -9.108301 -0.517850 2.259794 -5.689036 -7.282399 20.982490 0.043415 -0.422085 9.605068 0.000001 0.000001 -0.000001 0.000003 0.000001 -0.000002 -9.532489 0.000036 -0.000001 -2.049607 -1.455398 26.946455 -0.396672 1.582020 26.823490 -0.000002 -0.000001 -0.000001 -0.000001 -0.000002 0.000001 -9.103594 -0.043068 -1.865099 1.926930 -3.763876 22.086035 -2.716588 5.016908 54.329620 -0.000001 0.000004 -0.000000 0.000001 0.000003 0.000000 -8.076696 -0.486712 -3.806303 2.715344 2.246198 34.989662 -2.116076 6.135745 38.215229 -0.000000 0.000002 0.000002 -0.000002 0.000003 0.000002 4.570402 11.014636 -2.160813 0.371316 1.048845 3.181567 -4.213489 -29.596815 -72.306500 2.893783 -93.321694 2.888839 45.738355 -0.327254 22.616616 2.466091 -1.576242 2.681692 1.031822 -11.131783 -6.023182 3.217385 21.651561 -5.779570 -0.000012 -0.000000 -0.000004 0.000002 0.000003 0.000005 9.109285 -0.518026 2.259909 -5.535705 2.706491 -22.792273 0.260574 0.753094 -44.486351 -0.000008 -0.000004 -0.000002 -0.000001 -0.000000 0.000001 9.533409 0.000002 0.000002 -0.595696 1.608391 -22.352137 -0.437017 -1.943839 -24.599338 -0.000002 -0.000003 -0.000001 0.000000 -0.000001 -0.000001 9.104493 -0.043021 -1.865094 1.323108 6.402676 -27.045176 -0.451328 -2.068742 -25.088340 0.000005 0.000004 0.000002 0.000001 0.000000 0.000004 8.077793 -0.486901 -3.806296 1.464248 3.280649 -41.668228 -0.010708 -0.754552 -6.207559 -0.000003 0.000003 0.000000 0.000000 -0.000001 -0.000000 -8.207802 -6.751713 -1.599542 -9.706051 0.590747 -6.185385 20.660735 0.248039 0.727231 -5.569608 -6.020366 13.949063 -1.720080 -0.079144 -1.564089 0.000000 0.000001 0.000000 8.207798 -6.751686 -1.599545 -13.904032 0.493943 3.078129 29.656248 -0.183575 -1.108893 -14.873502 12.490651 2.801438 -0.123350 -0.026446 0.062652 -0.000000 0.000000 0.000000 
10.750520 101.132545 0.041800 -1.543871 -8.910351 -4.637555 0.000000 10.181539 0.131523 4.433114 0.600892 0.042850 8.883273 1.124233 -1.062097 8.883275 1.124227 -1.062098 0.000002 16.740351 -2.049022 2.862355 -1.509127 2.179276 -0.000001 9.617844 1.684978 -10.864307 -5.405154 2.182829 0.000001 22.037354 7.501072 0.000000 0.000000 -0.000000 -4.570001 11.014867 -2.160841 0.929920 -2.055866 -3.926913 9.936579 2.807842 79.042904 1.688007 96.573882 -2.262091 29.440680 4.656075 -23.735889 -2.464785 -1.573990 2.681910 5.347828 5.600438 13.589654 3.517935 -12.004865 1.433095 0.000012 -0.000004 -0.000005 -0.000004 0.000003 -0.000003 -9.108304 -0.517871 2.259798 -5.709157 -7.235967 20.971555 0.043325 -0.421812 9.597899 0.000001 0.000001 -0.000002 0.000000 0.000001 -0.000002 -9.532512 0.000018 -0.000007 -2.060698 -1.432375 26.878471 -0.395363 1.579638 26.777371 -0.000002 -0.000001 0.000001 -0.000001 -0.000001 0.000001 -9.103601 -0.043103 -1.865106 1.936258 -3.789449 22.044685 -2.714421 5.015401 54.305007 0.000001 0.000000 0.000002 0.000002 -0.000003 0.000001 -8.076708 -0.486714 -3.806301 2.686229 2.289487 34.966884 -2.104482 6.122599 38.104000 -0.000002 0.000003 -0.000000 -0.000001 0.000003 0.000001 4.570400 11.014660 -2.160816 0.367944 1.037751 3.151882 -3.942860 -29.221786 -72.299779 2.972040 -93.258221 2.977769 45.813569 -0.475915 22.709971 2.466087 -1.576226 2.681690 1.173152 -11.034165 -6.035287 3.171277 21.808745 -5.807883 -0.000011 0.000003 -0.000003 -0.000001 0.000009 -0.000001 9.109298 -0.518005 2.259901 -5.503321 2.793865 -22.607288 0.278902 0.769582 -45.807852 -0.000005 0.000002 -0.000005 -0.000002 -0.000004 0.000002 9.533407 -0.000009 0.000001 -0.564728 1.681889 -22.193592 -0.435632 -1.940961 -24.559164 0.000002 -0.000006 -0.000002 0.000002 0.000002 0.000000 9.104515 -0.043003 -1.865100 1.361970 6.469986 -27.091097 -0.452659 -2.071574 -25.125035 0.000005 0.000007 0.000001 0.000002 0.000004 0.000002 8.077785 -0.486905 -3.806302 1.443631 3.263694 -41.596166 -0.011251 -0.759373 -6.247964 -0.000000 -0.000000 0.000001 0.000001 0.000000 -0.000002 -8.207799 -6.751716 -1.599543 -9.630864 0.858482 -6.363197 20.375079 0.276945 0.716294 -5.063747 -6.198413 14.267459 -1.894495 -0.072323 -1.748533 0.000000 0.000001 -0.000000 8.207800 -6.751713 -1.599544 -13.743376 0.526453 2.816848 29.261309 -0.170108 -1.093944 -14.727689 12.596690 2.991677 -0.128347 -0.026463 0.062657 -0.000000 0.000000 0.000000 
10.996408 101.212738 0.084975 -1.507508 -8.962231 -4.609866 0.000001 10.181547 0.131525 4.395712 0.591523 0.053898 8.807911 1.107253 -1.027206 8.807909 1.107253 -1.027206 0.000001 16.740356 -2.049020 2.938614 -1.764304 1.889883 -0.000002 9.617867 1.684982 -10.919623 -7.252965 2.677039 0.000001 22.037369 7.501068 0.000000 0.000000 0.000000 -4.569999 11.014846 -2.160836 0.923197 -2.046616 -3.879732 10.011830 2.612688 79.218446 1.747359 96.487303 -2.325159 29.457629 4.764299 -23.650821 -2.464816 -1.573989 2.681907 5.328764 5.598208 13.578174 3.514939 -12.017295 1.439462 0.000008 -0.000004 -0.000005 -0.000003 -0.000005 -0.000001 -9.108304 -0.517865 2.259803 -5.721483 -7.224224 20.888035 0.043316 -0.421652 9.594222 0.000003 -0.000001 0.000001 0.000002 -0.000001 0.000001 -9.532508 0.000025 0.000002 -2.043447 -1.462573 26.732160 -0.392884 1.575227 26.690948 0.000001 -0.000002 -0.000000 0.000001 -0.000001 -0.000001 -9.103606 -0.043098 -1.865101 1.941522 -3.805566 21.998598 -2.710426 5.012563 54.259255 -0.000000 -0.000001 0.000001 -0.000001 0.000001 0.000000 -8.076706 -0.486725 -3.806300 2.690782 2.285390 34.944556 -2.115281 6.134818 38.207600 -0.000000 0.000001 0.000003 -0.000001 -0.000001 0.000002 4.570401 11.014666 -2.160818 0.364233 1.025018 3.117169 -3.684429 -28.813419 -72.376421 3.110558 -93.212801 3.126822 45.905637 -0.533672 22.806857 2.466084 -1.576213 2.681702 1.543365 -11.089419 -6.146909 3.099985 22.052210 -5.851686 -0.000012 -0.000002 -0.000001 -0.000000 0.000006 -0.000001 9.109306 -0.518013 2.259908 -5.459466 2.933935 -22.157279 0.295533 0.783965 -46.984892 -0.000005 -0.000001 -0.000005 0.000000 0.000001 0.000001 9.533388 0.000013 0.000015 -0.511576 1.813097 -21.539374 -0.433455 -1.936403 -24.495613 0.000001 -0.000003 -0.000003 0.000001 0.000003 0.000001 9.104510 -0.043010 -1.865084 1.416975 6.605721 -26.927075 -0.453468 -2.073281 -25.147098 0.000007 0.000005 0.000001 0.000001 -0.000006 0.000005 8.077809 -0.486881 -3.806286 1.457275 3.284336 -41.522117 -0.011712 -0.763422 -6.281951 0.000002 -0.000002 0.000003 0.000003 -0.000001 -0.000001 -8.207800 -6.751707 -1.599541 -9.506500 1.140910 -6.483850 20.027050 0.288131 0.700526 -4.581371 -6.404180 14.491756 -2.000472 -0.070148 -1.799758 0.000000 0.000001 0.000000 8.207800 -6.751696 -1.599545 -13.555508 0.502694 2.588474 28.832373 -0.157221 -1.077828 -14.562353 12.708688 3.165179 -0.127386 -0.026457 0.062651 -0.000000 -0.000000 -0.000000 
11.223732 101.294403 0.125627 -1.478881 -9.016799 -4.602202 0.000001 10.181555 0.131525 4.355823 0.584449 0.071459 8.727638 1.095332 -0.983249 8.727637 1.095327 -0.983250 0.000001 16.740339 -2.049013 3.021367 -2.052636 1.586545 0.000001 9.617826 1.684987 -10.912212 -9.241984 3.070012 -0.000001 22.037369 7.501070 0.000000 -0.000001 -0.000000 -4.570002 11.014833 -2.160833 0.904398 -2.005953 -3.781632 10.122145 2.398283 79.299555 1.790175 96.440413 -2.370038 29.438897 4.809257 -23.552760 -2.464803 -1.573982 2.681901 5.286029 5.817696 13.605418 3.458977 -12.237405 1.541426 0.000011 -0.000000 -0.000003 -0.000004 -0.000000 -0.000003 -9.108301 -0.517865 2.259799 -5.723212 -7.213884 20.911502 0.043157 -0.420786 9.572052 -0.000001 0.000000 -0.000000 -0.000004 -0.000001 0.000001 -9.532496 0.000006 -0.000007 -2.050030 -1.449244 26.721647 -0.391053 1.571946 26.626639 -0.000000 -0.000001 -0.000000 0.000000 -0.000001 -0.000000 -9.103601 -0.043096 -1.865107 1.941901 -3.806446 22.004706 -2.709872 5.012174 54.253053 -0.000000 -0.000001 0.000001 -0.000001 0.000000 0.000000 -8.076693 -0.486718 -3.806303 2.686526 2.286762 34.977914 -2.114236 6.133663 38.197638 -0.000000 0.000001 0.000003 -0.000001 -0.000000 0.000001 4.570400 11.014658 -2.160812 0.361408 1.015336 3.091459 -3.432348 -28.404506 -72.517833 3.233161 -93.221973 3.258503 45.938053 -0.554817 22.855647 2.466087 -1.576234 2.681691 1.967057 -11.058238 -6.250097 3.011285 22.356760 -5.906980 -0.000011 -0.000000 0.000001 -0.000000 -0.000002 0.000001 9.109301 -0.518001 2.259904 -5.428566 3.053772 -21.650957 0.298766 0.786782 -47.208639 -0.000005 -0.000007 -0.000003 0.000002 -0.000002 0.000001 9.533397 0.000005 0.000000 -0.462322 1.940898 -20.922656 -0.432526 -1.934400 -24.467925 -0.000000 -0.000003 -0.000000 -0.000002 0.000003 -0.000002 9.104507 -0.043000 -1.865098 1.476597 6.740899 -26.824572 -0.452494 -2.071190 -25.119873 0.000005 0.000006 -0.000001 0.000001 0.000002 0.000001 8.077785 -0.486892 -3.806302 1.462855 3.296851 -41.439929 -0.012160 -0.767335 -6.314346 -0.000001 0.000002 0.000002 0.000001 0.000003 -0.000001 -8.207800 -6.751708 -1.599542 -9.356261 1.395083 -6.576708 19.646554 0.299432 0.683019 -4.113288 -6.585441 14.684866 -2.078725 -0.068569 -1.836020 0.000000 -0.000000 -0.000000 8.207802 -6.751709 -1.599545 -13.359036 0.482144 2.397056 28.404078 -0.144823 -1.061763 -14.396341 12.815896 3.323102 -0.129499 -0.026460 0.062649 -0.000000 0.000000 0.000000 
